<svg width="42" height="42" viewBox="0 0 42 42" fill="none" xmlns="http://www.w3.org/2000/svg">
<path d="M41.8334 21.0001C41.8334 26.5254 39.6385 31.8245 35.7315 35.7315C31.8245 39.6385 26.5254 41.8334 21.0001 41.8334C18.2642 41.8334 15.5551 41.2945 13.0275 40.2476C10.4999 39.2006 8.20324 37.666 6.26869 35.7315C4.33414 33.7969 2.79956 31.5003 1.75259 28.9727C0.705617 26.445 0.166747 23.736 0.166747 21.0001C0.166747 18.2642 0.705618 15.5551 1.75259 13.0275C2.79956 10.4999 4.33414 8.20324 6.26869 6.26869C10.1757 2.36168 15.4747 0.166749 21.0001 0.166749C26.5254 0.166749 31.8245 2.36168 35.7315 6.26869C37.666 8.20325 39.2006 10.4999 40.2476 13.0275C41.2945 15.5551 41.8334 18.2642 41.8334 21.0001ZM37.6668 21.0001C37.6668 16.5798 35.9108 12.3406 32.7852 9.21497C29.6596 6.08936 25.4204 4.33342 21.0001 4.33342C16.5798 4.33342 12.3406 6.08936 9.21497 9.21497C6.08936 12.3406 4.33341 16.5798 4.33341 21.0001C4.33341 25.4204 6.08936 29.6596 9.21497 32.7852C12.3406 35.9108 16.5798 37.6668 21.0001 37.6668C25.4204 37.6668 29.6596 35.9108 32.7852 32.7852C35.9108 29.6596 37.6668 25.4204 37.6668 21.0001ZM25.1667 31.4168L14.7501 21.0001L25.1667 10.5834L25.1667 31.4168Z" fill="white" fill-opacity="0.5"/>
</svg>
