<svg width="42" height="42" viewBox="0 0 42 42" fill="none" xmlns="http://www.w3.org/2000/svg">
<path d="M0.166579 21.0001C0.166579 18.2642 0.705451 15.5551 1.75242 13.0275C2.7994 10.4999 4.33397 8.20324 6.26852 6.26869C10.1755 2.36168 15.4746 0.166747 20.9999 0.166747C26.5253 0.166747 31.8243 2.36168 35.7313 6.26869C39.6383 10.1757 41.8333 15.4747 41.8333 21.0001C41.8333 23.736 41.2944 26.445 40.2474 28.9727C39.2004 31.5003 37.6659 33.7969 35.7313 35.7315C33.7968 37.666 31.5001 39.2006 28.9725 40.2476C26.4449 41.2945 23.7358 41.8334 20.9999 41.8334C15.4746 41.8334 10.1755 39.6385 6.26852 35.7315C2.36151 31.8245 0.166579 26.5254 0.166579 21.0001ZM16.8332 31.4167L27.2499 21.0001L16.8332 10.5834L16.8332 31.4167Z" fill="white"/>
</svg>
