<svg width="58" height="58" viewBox="0 0 58 58" fill="none" xmlns="http://www.w3.org/2000/svg">
<rect opacity="0.15" x="0.75" y="0.75" width="56.5" height="56.5" rx="18.75" stroke="white" stroke-width="1.5"/>
<g clip-path="url(#clip0_123_2663)">
<path d="M29 16C25.4721 16 25.0285 16.0163 23.6424 16.078C22.2562 16.143 21.3121 16.3607 20.485 16.6825C19.6174 17.0088 18.8315 17.5207 18.1824 18.1824C17.5211 18.8319 17.0093 19.6176 16.6825 20.485C16.3607 21.3105 16.1414 22.2562 16.078 23.6375C16.0163 25.0269 16 25.4689 16 29.0016C16 32.5311 16.0163 32.9731 16.078 34.3593C16.143 35.7437 16.3607 36.6879 16.6825 37.515C17.0156 38.3697 17.4593 39.0945 18.1824 39.8176C18.9039 40.5407 19.6286 40.986 20.4834 41.3175C21.3121 41.6392 22.2546 41.8586 23.6391 41.922C25.0269 41.9837 25.4689 42 29 42C32.5311 42 32.9715 41.9837 34.3593 41.922C35.7421 41.857 36.6895 41.6392 37.5166 41.3175C38.3837 40.991 39.169 40.4791 39.8176 39.8176C40.5407 39.0945 40.9844 38.3697 41.3175 37.515C41.6376 36.6879 41.857 35.7437 41.922 34.3593C41.9837 32.9731 42 32.5311 42 29C42 25.4689 41.9837 25.0269 41.922 23.6391C41.857 22.2563 41.6376 21.3105 41.3175 20.485C40.9907 19.6176 40.4789 18.8318 39.8176 18.1824C39.1687 17.5205 38.3827 17.0085 37.515 16.6825C36.6862 16.3607 35.7405 16.1414 34.3576 16.078C32.9699 16.0163 32.5295 16 28.9967 16H29.0016H29ZM27.8349 18.3433H29.0016C32.4726 18.3433 32.8837 18.3546 34.2536 18.418C35.5211 18.4749 36.2101 18.6878 36.6684 18.8649C37.2745 19.1005 37.7084 19.3832 38.1634 19.8382C38.6184 20.2933 38.8995 20.7255 39.1351 21.3333C39.3139 21.7899 39.5251 22.4789 39.582 23.7464C39.6454 25.1163 39.6584 25.5274 39.6584 28.9967C39.6584 32.4661 39.6454 32.8789 39.582 34.2487C39.5251 35.5162 39.3123 36.2036 39.1351 36.6619C38.9267 37.2263 38.594 37.7367 38.1617 38.1553C37.7067 38.6103 37.2745 38.8914 36.6667 39.127C36.2118 39.3057 35.5227 39.517 34.2536 39.5755C32.8837 39.6373 32.4726 39.6519 29.0016 39.6519C25.5306 39.6519 25.1179 39.6373 23.748 39.5755C22.4805 39.517 21.7931 39.3057 21.3349 39.127C20.7702 38.9189 20.2593 38.5868 19.8399 38.1553C19.4072 37.7361 19.074 37.2252 18.8649 36.6602C18.6878 36.2036 18.4749 35.5146 18.418 34.2471C18.3563 32.8773 18.3433 32.4661 18.3433 28.9935C18.3433 25.5225 18.3563 25.113 18.418 23.7431C18.4765 22.4756 18.6878 21.7866 18.8665 21.3284C19.1021 20.7222 19.3849 20.2884 19.8399 19.8334C20.2949 19.3784 20.7271 19.0972 21.3349 18.8616C21.7931 18.6829 22.4805 18.4716 23.748 18.4131C24.9473 18.3579 25.412 18.3416 27.8349 18.34V18.3433ZM35.9404 20.5012C35.7355 20.5012 35.5327 20.5416 35.3434 20.62C35.1541 20.6984 34.9821 20.8133 34.8373 20.9582C34.6924 21.103 34.5775 21.275 34.4991 21.4643C34.4207 21.6535 34.3804 21.8564 34.3804 22.0613C34.3804 22.2661 34.4207 22.469 34.4991 22.6582C34.5775 22.8475 34.6924 23.0195 34.8373 23.1643C34.9821 23.3092 35.1541 23.4241 35.3434 23.5025C35.5327 23.5809 35.7355 23.6213 35.9404 23.6213C36.3541 23.6213 36.7509 23.4569 37.0435 23.1643C37.336 22.8718 37.5004 22.475 37.5004 22.0613C37.5004 21.6475 37.336 21.2507 37.0435 20.9582C36.7509 20.6656 36.3541 20.5012 35.9404 20.5012ZM29.0016 22.3245C28.1161 22.3107 27.2367 22.4732 26.4146 22.8025C25.5925 23.1318 24.8441 23.6214 24.213 24.2427C23.5819 24.864 23.0807 25.6047 22.7386 26.4215C22.3965 27.2384 22.2203 28.1152 22.2203 29.0008C22.2203 29.8864 22.3965 30.7632 22.7386 31.5801C23.0807 32.397 23.5819 33.1376 24.213 33.7589C24.8441 34.3803 25.5925 34.8698 26.4146 35.1991C27.2367 35.5285 28.1161 35.6909 29.0016 35.6771C30.7543 35.6498 32.4258 34.9344 33.6556 33.6853C34.8853 32.4362 35.5746 30.7537 35.5746 29.0008C35.5746 27.248 34.8853 25.5654 33.6556 24.3163C32.4258 23.0673 30.7543 22.3518 29.0016 22.3245ZM29.0016 24.6661C30.151 24.6661 31.2534 25.1227 32.0661 25.9355C32.8789 26.7482 33.3355 27.8506 33.3355 29C33.3355 30.1494 32.8789 31.2518 32.0661 32.0645C31.2534 32.8773 30.151 33.3339 29.0016 33.3339C27.8522 33.3339 26.7499 32.8773 25.9371 32.0645C25.1244 31.2518 24.6678 30.1494 24.6678 29C24.6678 27.8506 25.1244 26.7482 25.9371 25.9355C26.7499 25.1227 27.8522 24.6661 29.0016 24.6661Z" fill="white"/>
</g>
<defs>
<clipPath id="clip0_123_2663">
<rect width="26" height="26" fill="white" transform="translate(16 16)"/>
</clipPath>
</defs>
</svg>
