<svg width="73" height="69" viewBox="0 0 73 69" fill="none" xmlns="http://www.w3.org/2000/svg">
<path d="M34.2909 0.666222C25.9073 1.33634 18.6786 4.54434 12.89 10.1619C9.21144 13.7121 6.33137 18.1035 4.64894 22.7088C4.2925 23.6783 4.05012 24.1774 3.97883 24.0633C3.90754 23.9635 3.59387 23.3932 3.25168 22.8086C2.51027 21.5254 1.89719 21.1119 1.08449 21.3828C0.357343 21.6252 0.072187 22.0102 0.0864448 22.7943C0.0864448 23.3504 0.300312 23.8352 1.61203 26.1592C2.45324 27.642 3.33723 29.0393 3.56535 29.2531C4.32102 29.9518 4.67746 29.852 7.91398 28.027C9.51086 27.1287 10.9366 26.316 11.0935 26.2162C11.8634 25.7315 11.9632 24.5766 11.2931 23.9065C10.6372 23.2506 10.0384 23.3219 8.4843 24.2201C7.77141 24.6193 7.18684 24.8902 7.15832 24.819C7.03 24.4482 9.18293 19.7717 10.2523 18.0893L10.6657 17.4334L12.7902 18.0465C14.6294 18.574 18.3792 19.4295 20.1472 19.7432C20.4894 19.8002 20.6747 19.9 20.632 19.9998C20.6034 20.0996 20.4609 20.6984 20.3183 21.3543C20.0759 22.4522 20.0759 22.5805 20.2898 23.0225C20.5749 23.6356 21.2593 24.0063 21.8724 23.8922C22.6566 23.7496 23.0273 23.1793 23.3837 21.6252C23.6831 20.2422 23.6974 20.2279 24.0681 20.2992C24.282 20.342 25.1232 20.4418 25.9501 20.5274C26.7771 20.6272 27.4614 20.7127 27.4757 20.727C27.5042 20.7412 27.2191 20.9836 26.8341 21.2402C23.7402 23.4502 21.2736 27.2428 20.4466 31.1352C19.1491 37.1662 21.6585 43.8816 26.5632 47.5174C27.3046 48.0592 27.49 48.2731 27.2904 48.3016C27.1478 48.3158 26.2638 48.4156 25.3513 48.5154L23.6831 48.7008L23.3695 47.3463C22.8989 45.2219 22.6566 44.9082 21.5302 44.9082C20.8743 44.9082 20.3183 45.3359 20.1614 45.9775C20.0902 46.2912 20.4038 48.4014 20.6177 48.9717C20.6747 49.1 20.3183 49.2141 19.363 49.3994C17.7234 49.6846 14.4155 50.4688 12.3624 51.0533C11.5212 51.2957 10.7655 51.4383 10.6943 51.3955C10.6087 51.3527 10.1952 50.6969 9.75324 49.9555C7.48625 46.1059 6.1175 41.7715 5.63273 36.9666L5.54719 36.0826L11.2503 36.0399C16.7823 35.9971 16.9534 35.9828 17.3527 35.6977C18.1368 35.1131 18.1368 33.8869 17.3527 33.3024C16.9534 33.0029 16.8394 33.0029 10.1667 33.0029H3.39426L2.98078 33.4734C2.58156 33.9297 2.5673 33.9725 2.5673 35.4981C2.5673 38.3781 3.22316 42.1707 4.26398 45.2361C6.10324 50.6541 8.82648 54.9315 13.0183 58.9807C25.4083 70.9572 45.0271 71.5703 58.2441 60.4065C62.8208 56.5568 66.5421 51.1531 68.3814 45.6924C68.6808 44.7941 68.9659 44.0527 69.0087 44.0527C69.0515 44.0527 69.3794 44.5518 69.7216 45.1506C70.5058 46.5051 71.1046 46.89 71.9458 46.6191C72.5161 46.4338 73.0009 45.7637 73.0009 45.1791C73.0009 44.6943 69.964 39.2479 69.4079 38.7203C68.695 38.0645 68.2531 38.207 64.7029 40.2031C62.0224 41.7145 61.5804 42.0281 61.3665 42.4559C61.0671 43.0975 61.281 43.9387 61.837 44.2951C62.4929 44.7229 63.1202 44.6088 64.5603 43.7818C65.2874 43.3684 65.929 43.069 65.9718 43.1117C66.1001 43.24 65.0593 46.0916 64.3036 47.717C63.9187 48.5297 63.2913 49.7274 62.8779 50.3832C62.1935 51.5238 62.1364 51.5951 61.7943 51.4668C60.8818 51.1104 57.0036 50.1266 54.7509 49.6703C53.3821 49.3852 52.2415 49.1428 52.213 49.1285C52.1988 49.1 52.3128 48.5154 52.4697 47.8168C52.8118 46.391 52.7548 45.8065 52.2843 45.3645C51.6284 44.7514 50.4593 44.8369 50.003 45.5356C49.889 45.7066 49.6466 46.4908 49.4755 47.2893L49.1476 48.715L48.4917 48.6438C48.1353 48.601 47.2941 48.5012 46.6382 48.4156L45.4263 48.2588L46.0536 47.8453C47.2085 47.0897 49.1904 45.0223 50.1314 43.6108C51.215 41.9854 51.9279 40.417 52.4411 38.5207C52.7691 37.266 52.8118 36.8953 52.8118 34.5C52.8118 32.1047 52.7691 31.734 52.4411 30.4793C51.9279 28.583 51.215 27.0147 50.1314 25.3893C49.2046 23.992 47.2085 21.9246 46.0679 21.169C45.74 20.9551 45.4976 20.7555 45.5118 20.727C45.5404 20.7127 46.2247 20.6272 47.0517 20.5274C47.8786 20.4418 48.6771 20.342 48.8482 20.3135C49.1191 20.2565 49.1761 20.3705 49.4755 21.668C49.7464 22.8656 49.8605 23.1508 50.2169 23.4502C51.0439 24.1488 52.3128 23.7781 52.5837 22.7658C52.6693 22.4522 52.6265 21.9246 52.4411 21.1119C52.2986 20.4418 52.1988 19.8857 52.2273 19.8715C52.2415 19.8572 53.3821 19.6149 54.7509 19.3297C56.1197 19.0588 58.2155 18.5598 59.3847 18.2318C60.5681 17.9039 61.6659 17.6045 61.837 17.576C62.2363 17.4904 62.6497 18.1178 64.0755 20.9693C65.7294 24.2772 66.8273 28.084 67.1124 31.5344L67.2407 32.9316H61.6945C55.5208 32.9316 55.4068 32.9459 54.979 33.8584C54.8507 34.115 54.7509 34.4002 54.7509 34.5C54.7509 34.5998 54.8507 34.885 54.979 35.1416C55.4068 36.0684 55.4353 36.0684 62.5071 36.0684C69.3366 36.0684 69.5648 36.0399 70.0638 35.3412C70.3632 34.9135 70.3632 33.0885 70.078 30.6219C69.5933 26.5156 68.5097 22.9227 66.6277 19.1871C61.8228 9.64864 52.598 2.84766 42.0614 1.0797C39.5948 0.666222 36.3726 0.495125 34.2909 0.666222ZM34.904 10.9318L34.8613 18.0322L33.2216 17.9895C30.8976 17.9324 24.7239 17.4477 24.5529 17.3193C24.4673 17.2481 25.7362 13.9545 26.3779 12.6143C28.0175 9.20665 30.0421 6.56895 32.081 5.17169C33.0505 4.51583 34.2909 3.917 34.8327 3.85997C34.8898 3.84571 34.9183 7.03946 34.904 10.9318ZM39.5663 4.48732C42.09 5.71349 44.4995 8.5793 46.4814 12.7141C47.18 14.1684 48.1923 16.8061 48.1923 17.1625C48.1923 17.2908 47.7361 17.3906 46.6667 17.5047C44.856 17.69 41.4484 17.9324 39.3952 18.0037L37.9267 18.0607V10.9461V3.83146L38.2546 3.917C38.4257 3.95978 39.0245 4.21642 39.5663 4.48732ZM27.5327 5.22872C24.5814 9.12111 23.0843 11.8586 21.8724 15.5799L21.4589 16.8488L20.8173 16.749C18.8782 16.4639 12.6904 14.9953 12.6904 14.81C12.6904 14.6104 15.4421 11.8301 16.5257 10.9176C19.1777 8.69337 22.9132 6.56895 26.164 5.41407C27.0337 5.11466 27.7466 4.85802 27.7751 4.85802C27.8036 4.84376 27.6896 5.01485 27.5327 5.22872ZM49.6181 6.64024C51.6427 7.60978 52.9259 8.39396 55.0361 9.96231C56.6757 11.1885 60.0263 14.3965 60.0263 14.7529C60.0263 14.867 59.3562 15.1094 58.2868 15.3945C56.5474 15.8508 52.0419 16.8203 51.5999 16.8203C51.4288 16.8203 51.215 16.3783 50.83 15.2092C49.832 12.215 48.0355 8.82169 46.1392 6.34083C45.6544 5.71349 45.2124 5.11466 45.1554 5.02911C44.9843 4.75821 47.7646 5.77052 49.6181 6.64024ZM39.4665 21.4541C43.53 22.4236 46.9661 25.2324 48.6913 28.9822C49.4898 30.7359 49.8177 32.3043 49.832 34.4287C49.832 37.152 49.2902 39.1766 47.9357 41.4578C47.2513 42.5984 45.7827 44.2381 44.6279 45.1221C41.9616 47.1752 38.3687 48.1733 35.0466 47.7883C31.9812 47.4318 29.372 46.1629 27.162 43.9815C24.4388 41.2867 23.1984 38.2926 23.1984 34.4287C23.1984 32.9031 23.2696 32.3328 23.5691 31.1779C23.954 29.7379 24.7239 28.027 25.5224 26.8578C27.5327 23.9635 30.9831 21.8106 34.5761 21.2402C35.7025 21.0691 38.3402 21.1832 39.4665 21.4541ZM34.904 58.0682L34.9325 65.1543L34.5476 65.0688C33.9345 64.9262 32.8081 64.3274 31.8529 63.643C29.372 61.8893 26.8484 58.0539 25.1659 53.4914C24.8095 52.5219 24.5243 51.6949 24.5529 51.6807C24.7382 51.5238 33.4782 50.8822 34.5761 50.9535C34.8613 50.9678 34.8613 51.0818 34.904 58.0682ZM42.9882 51.1959C46.5241 51.424 48.1923 51.6379 48.1923 51.8375C48.1923 52.251 47.123 54.9457 46.2675 56.6994C44.8275 59.6365 43.2591 61.8037 41.4911 63.258C40.6499 63.9566 39.053 64.8549 38.2546 65.083L37.9267 65.1686V58.0539V50.925L39.3952 50.982C40.1937 51.0248 41.8191 51.1104 42.9882 51.1959ZM21.9437 53.634C23.0986 57.1842 25.1374 60.8484 27.6896 63.9852C27.932 64.2703 25.0091 63.201 23.1698 62.317C19.748 60.6774 17.1958 58.8524 14.4441 56.0721C13.4745 55.1025 12.6904 54.2613 12.6904 54.2043C12.6904 54.076 17.3669 52.8783 19.1777 52.5504C19.805 52.4221 20.4466 52.308 20.6034 52.2795C21.4446 52.0941 21.4446 52.0941 21.9437 53.634ZM54.3945 52.693C56.4761 53.1207 59.9122 54.0047 60.0691 54.1615C60.2544 54.3469 57.4314 57.1984 55.7489 58.5529C53.0827 60.6916 49.8462 62.5024 46.7095 63.5717C45.2837 64.0707 45.0556 64.1135 45.2124 63.8854C45.3265 63.7285 45.7827 63.1297 46.239 62.5309C48.064 60.1498 49.8747 56.6994 50.8443 53.7766L51.3718 52.1512L52.0277 52.251C52.3841 52.2938 53.4534 52.4934 54.3945 52.693Z" fill="#EDEDEC"/>
<path d="M35.4171 23.6356C34.9181 24.0348 34.7898 24.434 34.7898 25.703V26.9006L34.0911 26.9862C32.7081 27.1573 31.3536 28.141 30.6408 29.5098C30.156 30.4366 30.156 32.4184 30.6408 33.3879C31.0827 34.3147 31.9952 35.1844 32.9363 35.6264C33.6492 35.9543 33.9201 35.9828 36.0017 36.0399C38.454 36.0826 38.8247 36.1825 39.1527 36.8098C39.4663 37.4229 39.3951 38.0074 38.9388 38.5207L38.5253 38.9912H36.2868H34.0484L33.7062 38.592C33.5208 38.3782 33.3355 38.036 33.2927 37.8506C33.2499 37.651 33.1929 37.3231 33.1501 37.1235C32.9363 36.1254 31.5105 35.6977 30.7548 36.4106C30.2986 36.8383 30.1702 37.3088 30.2701 38.2071C30.4982 40.0891 32.1949 41.7858 34.0911 42.0139L34.7898 42.0994V43.2971C34.7898 43.953 34.8611 44.6373 34.9466 44.8084C35.3886 45.6782 36.5863 45.9063 37.3134 45.2789C37.6841 44.951 37.7126 44.8512 37.7839 43.5252L37.8552 42.128L38.5396 42.0282C39.9368 41.8285 41.3056 40.8162 41.9615 39.4903C42.2181 38.9627 42.2751 38.6063 42.2751 37.4942C42.2751 36.268 42.2324 36.0684 41.8617 35.384C41.3484 34.4573 40.6925 33.8584 39.6374 33.3737C38.9245 33.0457 38.6394 33.003 36.4722 32.9317C34.1482 32.8604 34.0769 32.8461 33.7204 32.4897C32.9933 31.7625 33.2357 30.4223 34.1624 30.0801C34.362 29.9946 35.3886 29.9375 36.4294 29.9375C38.3257 29.9375 38.3542 29.9375 38.7962 30.3367C39.1099 30.6219 39.2667 30.9213 39.3665 31.4346C39.6232 32.8604 41.0062 33.4307 41.9472 32.5039C42.3607 32.0905 42.3749 32.0192 42.3179 31.1067C42.2038 28.9965 40.6212 27.2571 38.5396 26.9719L37.8552 26.8721L37.7839 25.4748C37.7126 24.1489 37.6841 24.0491 37.3134 23.7211C36.8286 23.3076 35.8734 23.2649 35.4171 23.6356Z" fill="#EDEDEC"/>
</svg>
