<svg width="65" height="67" viewBox="0 0 65 67" fill="none" xmlns="http://www.w3.org/2000/svg">
<path d="M6.90688 0.578712C6.52192 0.664253 5.68071 0.977928 5.03911 1.27734C2.87192 2.31816 1.13247 4.58516 0.718994 6.89492C0.505127 8.07832 0.505127 58.9217 0.718994 60.1051C1.21802 62.8711 3.37095 65.2521 6.26528 66.2359C7.00669 66.4926 7.7481 66.5068 21.0934 66.5068C34.4387 66.5068 35.1801 66.4926 35.9215 66.2359C38.6305 65.3234 40.6409 63.2418 41.2967 60.7039L41.5391 59.7344H51.5196C58.9194 59.7344 61.6284 59.6916 62.0704 59.5633C62.8545 59.3352 64.0379 58.1518 64.2661 57.3676C64.5084 56.5121 64.5084 10.4879 64.2661 9.63242C64.0379 8.84824 62.8545 7.66484 62.0704 7.43672C61.6284 7.3084 58.9194 7.26562 51.5196 7.26562H41.5391L41.2967 6.29609C40.9831 5.06992 40.2131 3.74394 39.2436 2.76015C38.4024 1.90469 37.5754 1.3914 36.2209 0.863869L35.2799 0.493164L21.4499 0.464645C13.1661 0.464645 7.33462 0.507423 6.90688 0.578712ZM35.95 3.23066C37.276 3.85801 38.103 4.65644 38.7446 5.9539L39.2721 7.0375V33.5V59.9625L38.7446 61.0461C38.103 62.3436 37.276 63.142 35.95 63.7693L34.9948 64.2256H21.0934H7.19204L6.23677 63.7693C4.91079 63.142 4.08384 62.3436 3.44224 61.0461L2.9147 59.9625V33.5143V7.05176L3.37095 6.09648C3.61333 5.56894 4.08384 4.85605 4.39751 4.51387C5.02485 3.82949 6.32231 3.07383 7.2063 2.85996C7.53423 2.78867 13.4512 2.73164 21.3786 2.7459L34.9948 2.77441L35.95 3.23066ZM61.7995 9.90332L62.1559 10.2455V33.5V56.7545L61.7995 57.0967L61.4573 57.4531H51.5338H41.6247V33.5V9.54688H51.5338H61.4573L61.7995 9.90332Z" fill="url(#paint0_linear_123_2592)"/>
<path d="M6.48003 7.46523C5.89546 7.72188 5.29663 8.44902 5.19683 9.01934C5.15406 9.27598 5.12554 13.7814 5.15406 19.0568C5.19683 28.467 5.19683 28.6381 5.49624 29.023C5.65308 29.2369 5.96675 29.5506 6.18062 29.7074C6.56558 30.0068 6.65113 30.0068 21.0943 30.0068C35.5375 30.0068 35.623 30.0068 36.008 29.7074C36.2218 29.5506 36.5355 29.2369 36.6923 29.023C36.9918 28.6381 36.9918 28.5098 36.9918 18.6719C36.9918 8.83398 36.9918 8.70567 36.6923 8.3207C36.5355 8.10684 36.2218 7.79317 36.008 7.63633C35.623 7.33691 35.5089 7.33691 21.2654 7.3084C9.54546 7.27988 6.82222 7.3084 6.48003 7.46523ZM34.7818 18.6719V27.7969H21.0943H7.40679V18.6719V9.54688H21.0943H34.7818V18.6719Z" fill="url(#paint1_linear_123_2592)"/>
<path d="M19.3976 12.0563C15.99 12.9688 13.7658 16.3907 14.3789 19.8125C15.0348 23.4483 18.4139 25.9434 22.0068 25.4158C25.0437 24.9881 27.4105 22.6356 27.8383 19.6129C28.0379 18.1871 27.8383 16.961 27.1539 15.578C26.5836 14.4231 26.056 14.0096 25.3859 14.1807C25.1721 14.2377 24.1883 15.1075 23.0619 16.2053L21.1086 18.1444L20.7236 17.8307C20.0963 17.3317 19.2551 17.5313 18.9556 18.2584C18.699 18.8715 18.8701 19.2565 19.7969 20.1405C21.0943 21.3809 21.1514 21.3666 23.4611 19.0711C25.614 16.9467 25.5855 16.9467 25.5855 18.8145C25.5713 19.7555 25.5142 19.9979 25.0865 20.7821C24.5732 21.7658 23.9601 22.3362 22.9478 22.8352C21.9498 23.32 20.139 23.2914 19.141 22.7639C17.4871 21.9084 16.6031 20.4826 16.6031 18.6719C16.6031 16.2053 18.3283 14.366 20.8947 14.1237C22.1494 14.0096 22.5201 13.7387 22.5201 12.9545C22.5201 11.8852 21.3082 11.543 19.3976 12.0563Z" fill="url(#paint2_linear_123_2592)"/>
<path d="M6.47948 34.8402C5.89491 35.0969 5.29609 35.824 5.18202 36.4086C5.13925 36.6795 5.12499 37.6063 5.15351 38.4617C5.19628 40.1727 5.3246 40.4863 6.18007 41.1137C6.55077 41.3988 6.76464 41.4131 9.68749 41.4131C12.6103 41.4131 12.8242 41.3988 13.1949 41.1137C14.1074 40.4436 14.1787 40.2154 14.1787 38.0625C14.1787 35.9096 14.1074 35.6814 13.1949 35.0113C12.8385 34.7404 12.5818 34.7119 9.85859 34.6834C7.62011 34.6549 6.80741 34.6834 6.47948 34.8402ZM11.9687 38.0625V39.2031H9.68749H7.40624V38.0625V36.9219H9.68749H11.9687V38.0625Z" fill="url(#paint3_linear_123_2592)"/>
<path d="M17.8857 34.8402C17.3012 35.0969 16.7023 35.824 16.5883 36.4086C16.5455 36.6795 16.5312 37.6063 16.5598 38.4617C16.6025 40.1727 16.7309 40.4863 17.5863 41.1137C17.957 41.3988 18.1709 41.4131 21.0937 41.4131C24.0166 41.4131 24.2305 41.3988 24.6012 41.1137C25.5137 40.4436 25.585 40.2154 25.585 38.0625C25.585 35.9096 25.5137 35.6814 24.6012 35.0113C24.2447 34.7404 23.9881 34.7119 21.2648 34.6834C19.0264 34.6549 18.2137 34.6834 17.8857 34.8402ZM23.375 38.0625V39.2031H21.0937H18.8125V38.0625V36.9219H21.0937H23.375V38.0625Z" fill="url(#paint4_linear_123_2592)"/>
<path d="M29.292 34.8402C28.7074 35.0969 28.1086 35.824 27.9945 36.4086C27.9517 36.6795 27.9375 37.6063 27.966 38.4617C28.0088 40.1727 28.1371 40.4863 28.9926 41.1137C29.3633 41.3988 29.5771 41.4131 32.5 41.4131C35.4228 41.4131 35.6367 41.3988 36.0074 41.1137C36.9199 40.4436 36.9912 40.2154 36.9912 38.0625C36.9912 35.9096 36.9199 35.6814 36.0074 35.0113C35.651 34.7404 35.3943 34.7119 32.6711 34.6834C30.4326 34.6549 29.6199 34.6834 29.292 34.8402ZM34.7812 38.0625V39.2031H32.5H30.2187V38.0625V36.9219H32.5H34.7812V38.0625Z" fill="url(#paint5_linear_123_2592)"/>
<path d="M6.47948 43.9652C5.89491 44.2219 5.29609 44.949 5.18202 45.5336C5.13925 45.8045 5.12499 46.7313 5.15351 47.5867C5.19628 49.2977 5.3246 49.6113 6.18007 50.2387C6.55077 50.5238 6.76464 50.5381 9.68749 50.5381C12.6103 50.5381 12.8242 50.5238 13.1949 50.2387C14.1074 49.5686 14.1787 49.3404 14.1787 47.1875C14.1787 45.0346 14.1074 44.8064 13.1949 44.1363C12.8385 43.8654 12.5818 43.8369 9.85859 43.8084C7.62011 43.7799 6.80741 43.8084 6.47948 43.9652ZM11.9687 47.1875V48.3281H9.68749H7.40624V47.1875V46.0469H9.68749H11.9687V47.1875Z" fill="url(#paint6_linear_123_2592)"/>
<path d="M17.8857 43.9652C17.3012 44.2219 16.7023 44.949 16.5883 45.5336C16.5455 45.8045 16.5312 46.7313 16.5598 47.5867C16.6025 49.2977 16.7309 49.6113 17.5863 50.2387C17.957 50.5238 18.1709 50.5381 21.0937 50.5381C24.0166 50.5381 24.2305 50.5238 24.6012 50.2387C25.5137 49.5686 25.585 49.3404 25.585 47.1875C25.585 45.0346 25.5137 44.8064 24.6012 44.1363C24.2447 43.8654 23.9881 43.8369 21.2648 43.8084C19.0264 43.7799 18.2137 43.8084 17.8857 43.9652ZM23.375 47.1875V48.3281H21.0937H18.8125V47.1875V46.0469H21.0937H23.375V47.1875Z" fill="url(#paint7_linear_123_2592)"/>
<path d="M29.292 43.9652C28.7074 44.2219 28.1086 44.949 27.9945 45.5336C27.9517 45.8045 27.9375 46.7313 27.966 47.5867C28.0088 49.2977 28.1371 49.6113 28.9926 50.2387C29.3633 50.5238 29.5771 50.5381 32.5 50.5381C35.4228 50.5381 35.6367 50.5238 36.0074 50.2387C36.9199 49.5686 36.9912 49.3404 36.9912 47.1875C36.9912 45.0346 36.9199 44.8064 36.0074 44.1363C35.651 43.8654 35.3943 43.8369 32.6711 43.8084C30.4326 43.7799 29.6199 43.8084 29.292 43.9652ZM34.7812 47.1875V48.3281H32.5H30.2187V47.1875V46.0469H32.5H34.7812V47.1875Z" fill="url(#paint8_linear_123_2592)"/>
<path d="M6.47948 53.0902C5.89491 53.3469 5.29609 54.074 5.18202 54.6586C5.13925 54.9295 5.12499 55.8563 5.15351 56.7117C5.19628 58.4227 5.3246 58.7363 6.18007 59.3637C6.55077 59.6488 6.76464 59.6631 9.68749 59.6631C12.6103 59.6631 12.8242 59.6488 13.1949 59.3637C14.1074 58.6936 14.1787 58.4654 14.1787 56.3125C14.1787 54.1596 14.1074 53.9314 13.1949 53.2613C12.8385 52.9904 12.5818 52.9619 9.85859 52.9334C7.62011 52.9049 6.80741 52.9334 6.47948 53.0902ZM11.9687 56.3125V57.4531H9.68749H7.40624V56.3125V55.1719H9.68749H11.9687V56.3125Z" fill="url(#paint9_linear_123_2592)"/>
<path d="M17.8857 53.0902C17.3012 53.3469 16.7023 54.074 16.5883 54.6586C16.5455 54.9295 16.5312 55.8563 16.5598 56.7117C16.6025 58.4227 16.7309 58.7363 17.5863 59.3637C17.9713 59.6631 18.1139 59.6631 26.7969 59.6631C35.4799 59.6631 35.6225 59.6631 36.0074 59.3637C36.9199 58.6936 36.9912 58.4654 36.9912 56.3125C36.9912 54.1596 36.9199 53.9314 36.0074 53.2613C35.6225 52.9619 35.4514 52.9619 26.968 52.9334C19.9959 52.9049 18.2279 52.9334 17.8857 53.0902ZM34.7812 56.3125V57.4531H26.7969H18.8125V56.3125V55.1719H26.7969H34.7812V56.3125Z" fill="url(#paint10_linear_123_2592)"/>
<path d="M54.2429 11.9564C51.648 12.6408 50.1795 15.2928 51.0207 17.7736L51.3201 18.6719L51.0207 19.5558C50.2935 21.7088 51.3629 24.1754 53.4302 25.1306C54.4283 25.5869 56.2676 25.5726 57.2371 25.1021C59.333 24.0613 60.331 21.723 59.6039 19.5558L59.3045 18.6719L59.6039 17.7736C60.331 15.6349 59.3045 13.2396 57.2513 12.2844C56.4957 11.9279 54.9701 11.7568 54.2429 11.9564ZM56.567 14.4943C57.1943 14.9648 57.4937 15.4781 57.565 16.2623C57.622 16.8469 57.5935 16.9752 57.4367 16.9181C56.0109 16.3336 54.5281 16.2623 53.6013 16.7471C53.0453 17.0322 53.031 17.0322 53.031 16.4762C53.031 15.5209 53.5443 14.6939 54.3855 14.309C54.9558 14.0381 56.0822 14.1379 56.567 14.4943ZM56.2533 18.9428C57.7504 19.6271 58.0355 21.5662 56.8093 22.6498C55.8683 23.4625 54.6422 23.4197 53.7439 22.5215C52.5463 21.3238 52.9597 19.4418 54.5281 18.8857C55.2838 18.6148 55.5547 18.6291 56.2533 18.9428Z" fill="url(#paint11_linear_123_2592)"/>
<path d="M51.1064 30.4346C50.75 30.7768 50.75 30.8053 50.75 33.5C50.75 36.1947 50.75 36.2232 51.1064 36.5654C51.3203 36.7936 51.6197 36.9219 51.8906 36.9219C52.1615 36.9219 52.4609 36.7936 52.6748 36.5654C53.0312 36.2232 53.0312 36.1947 53.0312 33.5C53.0312 30.8053 53.0312 30.7768 52.6748 30.4346C52.4609 30.2064 52.1615 30.0781 51.8906 30.0781C51.6197 30.0781 51.3203 30.2064 51.1064 30.4346Z" fill="url(#paint12_linear_123_2592)"/>
<path d="M57.9502 30.4346L57.5938 30.7768V42.625V54.4733L57.9502 54.8155C58.4064 55.286 59.0623 55.286 59.5186 54.8155L59.875 54.4733V42.625V30.7768L59.5186 30.4346C59.3047 30.2065 59.0053 30.0781 58.7344 30.0781C58.4635 30.0781 58.1641 30.2065 57.9502 30.4346Z" fill="url(#paint13_linear_123_2592)"/>
<path d="M51.1064 39.5596C50.75 39.9018 50.75 39.9303 50.75 42.625C50.75 45.3197 50.75 45.3482 51.1064 45.6904C51.3203 45.9186 51.6197 46.0469 51.8906 46.0469C52.1615 46.0469 52.4609 45.9186 52.6748 45.6904C53.0312 45.3482 53.0312 45.3197 53.0312 42.625C53.0312 39.9303 53.0312 39.9018 52.6748 39.5596C52.4609 39.3314 52.1615 39.2031 51.8906 39.2031C51.6197 39.2031 51.3203 39.3314 51.1064 39.5596Z" fill="url(#paint14_linear_123_2592)"/>
<path d="M51.1064 48.6846C50.75 49.0268 50.75 49.0553 50.75 51.75C50.75 54.4447 50.75 54.4732 51.1064 54.8154C51.3203 55.0436 51.6197 55.1719 51.8906 55.1719C52.1615 55.1719 52.4609 55.0436 52.6748 54.8154C53.0312 54.4732 53.0312 54.4447 53.0312 51.75C53.0312 49.0553 53.0312 49.0268 52.6748 48.6846C52.4609 48.4564 52.1615 48.3281 51.8906 48.3281C51.6197 48.3281 51.3203 48.4564 51.1064 48.6846Z" fill="url(#paint15_linear_123_2592)"/>
<defs>
<linearGradient id="paint0_linear_123_2592" x1="32.5032" y1="66.5068" x2="32.5032" y2="0.464645" gradientUnits="userSpaceOnUse">
<stop stop-color="#EDEDEC"/>
</linearGradient>
<linearGradient id="paint1_linear_123_2592" x1="21.0672" y1="30.0068" x2="21.0672" y2="7.29862" gradientUnits="userSpaceOnUse">
<stop stop-color="#EDEDEC"/>
</linearGradient>
<linearGradient id="paint2_linear_123_2592" x1="21.0946" y1="25.4862" x2="21.0946" y2="11.8217" gradientUnits="userSpaceOnUse">
<stop stop-color="#EDEDEC"/>
</linearGradient>
<linearGradient id="paint3_linear_123_2592" x1="9.65869" y1="41.4131" x2="9.65869" y2="34.6736" gradientUnits="userSpaceOnUse">
<stop stop-color="#EDEDEC"/>
</linearGradient>
<linearGradient id="paint4_linear_123_2592" x1="21.0649" y1="41.4131" x2="21.0649" y2="34.6736" gradientUnits="userSpaceOnUse">
<stop stop-color="#EDEDEC"/>
</linearGradient>
<linearGradient id="paint5_linear_123_2592" x1="32.4712" y1="41.4131" x2="32.4712" y2="34.6736" gradientUnits="userSpaceOnUse">
<stop stop-color="#EDEDEC"/>
</linearGradient>
<linearGradient id="paint6_linear_123_2592" x1="9.65869" y1="50.5381" x2="9.65869" y2="43.7986" gradientUnits="userSpaceOnUse">
<stop stop-color="#EDEDEC"/>
</linearGradient>
<linearGradient id="paint7_linear_123_2592" x1="21.0649" y1="50.5381" x2="21.0649" y2="43.7986" gradientUnits="userSpaceOnUse">
<stop stop-color="#EDEDEC"/>
</linearGradient>
<linearGradient id="paint8_linear_123_2592" x1="32.4712" y1="50.5381" x2="32.4712" y2="43.7986" gradientUnits="userSpaceOnUse">
<stop stop-color="#EDEDEC"/>
</linearGradient>
<linearGradient id="paint9_linear_123_2592" x1="9.65869" y1="59.6631" x2="9.65869" y2="52.9236" gradientUnits="userSpaceOnUse">
<stop stop-color="#EDEDEC"/>
</linearGradient>
<linearGradient id="paint10_linear_123_2592" x1="26.7681" y1="59.6631" x2="26.7681" y2="52.9236" gradientUnits="userSpaceOnUse">
<stop stop-color="#EDEDEC"/>
</linearGradient>
<linearGradient id="paint11_linear_123_2592" x1="55.3116" y1="25.4641" x2="55.3116" y2="11.8718" gradientUnits="userSpaceOnUse">
<stop stop-color="#EDEDEC"/>
</linearGradient>
<linearGradient id="paint12_linear_123_2592" x1="51.8906" y1="36.9219" x2="51.8906" y2="30.0781" gradientUnits="userSpaceOnUse">
<stop stop-color="#EDEDEC"/>
</linearGradient>
<linearGradient id="paint13_linear_123_2592" x1="58.7344" y1="55.1683" x2="58.7344" y2="30.0781" gradientUnits="userSpaceOnUse">
<stop stop-color="#EDEDEC"/>
</linearGradient>
<linearGradient id="paint14_linear_123_2592" x1="51.8906" y1="46.0469" x2="51.8906" y2="39.2031" gradientUnits="userSpaceOnUse">
<stop stop-color="#EDEDEC"/>
</linearGradient>
<linearGradient id="paint15_linear_123_2592" x1="51.8906" y1="55.1719" x2="51.8906" y2="48.3281" gradientUnits="userSpaceOnUse">
<stop stop-color="#EDEDEC"/>
</linearGradient>
</defs>
</svg>
