<svg width="58" height="58" viewBox="0 0 58 58" fill="none" xmlns="http://www.w3.org/2000/svg">
<rect opacity="0.15" x="0.75" y="0.75" width="56.5" height="56.5" rx="18.75" stroke="white" stroke-width="1.5"/>
<path fill-rule="evenodd" clip-rule="evenodd" d="M28.6245 23.8523L28.6808 24.8039L27.7415 24.6874C24.3224 24.2407 21.3353 22.726 18.7992 20.182L17.5593 18.9198L17.2399 19.8519C16.5636 21.9298 16.9957 24.1242 18.4047 25.6001C19.1561 26.4157 18.987 26.5323 17.6908 26.0468C17.2399 25.8914 16.8454 25.7749 16.8078 25.8331C16.6763 25.9691 17.1272 27.7363 17.4841 28.4354C17.9726 29.4064 18.9683 30.3579 20.0579 30.9211L20.9784 31.3677L19.8888 31.3872C18.8368 31.3872 18.7992 31.4066 18.9119 31.8144C19.2876 33.0767 20.7718 34.4166 22.425 34.9992L23.5897 35.407L22.5753 36.0285C21.0723 36.9218 19.3064 37.4267 17.5405 37.4655C16.6951 37.4849 16 37.5626 16 37.6209C16 37.8151 18.2919 38.9026 19.6258 39.3298C23.6273 40.5921 28.3803 40.0483 31.9497 37.8927C34.4859 36.3586 37.022 33.3097 38.2056 30.3579C38.8443 28.7849 39.483 25.9108 39.483 24.532C39.483 23.6387 39.5394 23.5222 40.5914 22.4541C41.2114 21.8327 41.7938 21.153 41.9065 20.9588C42.0944 20.5898 42.0756 20.5898 41.1175 20.92C39.5206 21.5026 39.2952 21.4249 40.0842 20.551C40.6666 19.9296 41.3617 18.8032 41.3617 18.4731C41.3617 18.4148 41.0799 18.5119 40.7605 18.6867C40.4224 18.8809 39.6709 19.1722 39.1073 19.347L38.0928 19.6771L37.1723 19.0363C36.6651 18.6867 35.9512 18.2983 35.5755 18.1818C34.6174 17.9099 33.152 17.9488 32.2878 18.2595C29.9395 19.1334 28.4554 21.3861 28.6245 23.8523Z" fill="white"/>
</svg>
